# xmcd CD database file
#
# Track frame offsets:
#	150
#	20868
#	38410
#	56508
#	78060
#	92000
#	115163
#	140420
#	161843
#	185185
#	201860
#	218600
#
# Disc length: 3241 seconds
#
# Revision: 0
# Processed by: cddbd v1.5.1PL2 Copyright (c) Steve Scherf et al.
# Submitted via: CDex 1.51
#
DISCID=a00ca70c
DTITLE=B.B. and The Screaming Buddah Heads - Are You Satisfied?
DYEAR=1900
DGENRE=Blues
TTITLE0=Are You Really Satisfied?
TTITLE1=Brother Cain
TTITLE2=Talkin' Trash
TTITLE3=Softly I Fall
TTITLE4=Little Miss Lover
TTITLE5=World Of Trouble
TTITLE6=Run
TTITLE7=Dodge The Rain
TTITLE8=House Of Shame
TTITLE9=Under The Moonlit Sky
TTITLE10=Fire And Gasoline
TTITLE11=Blue Charade
EXTD=
EXTT0=
EXTT1=
EXTT2=
EXTT3=
EXTT4=
EXTT5=
EXTT6=
EXTT7=
EXTT8=
EXTT9=
EXTT10=
EXTT11=
PLAYORDER=
